<svg width="17" height="24" viewBox="0 0 17 24" fill="none" xmlns="http://www.w3.org/2000/svg">
<path fill-rule="evenodd" clip-rule="evenodd" d="M2.763 0H14.2366C15.686 0 16.861 1.23747 16.861 2.76398V20.39C16.861 21.9165 15.686 23.1539 14.2366 23.1539H2.763C1.31362 23.1539 0.138672 21.9165 0.138672 20.39V2.76398C0.138672 1.23747 1.31362 0 2.763 0ZM6.21217 15.2105C6.25168 15.4672 6.46077 15.6492 6.6995 15.6492L6.69785 15.6475C6.7242 15.6475 6.75054 15.6458 6.77688 15.6406C7.04689 15.5938 7.22963 15.3285 7.18683 15.0441C6.98597 13.7158 6.05412 12.6477 4.81439 12.3235C4.54933 12.2541 4.28097 12.424 4.21511 12.7032C4.14926 12.9824 4.3106 13.265 4.57567 13.3344C5.44331 13.5615 6.07058 14.2811 6.21217 15.2105ZM8.05447 14.6591C8.10551 14.9002 8.30966 15.0632 8.53521 15.0632C8.57143 15.0632 8.6093 15.058 8.64552 15.0493C8.91223 14.9851 9.07852 14.7077 9.0176 14.4268C8.6093 12.5367 7.26585 10.997 5.51246 10.4074C5.25233 10.3207 4.97409 10.4716 4.89177 10.7455C4.80945 11.0195 4.95269 11.3125 5.21282 11.3992C6.63364 11.8778 7.72355 13.1263 8.05447 14.6591ZM9.93299 14.1199C9.98561 14.3623 10.1894 14.527 10.4146 14.5273C10.4143 14.5273 10.414 14.5273 10.4137 14.5273H10.4154C10.4151 14.5273 10.4149 14.5273 10.4146 14.5273C10.4505 14.5273 10.4865 14.5238 10.5224 14.5152C10.7891 14.4528 10.957 14.1753 10.8978 13.8944C10.3627 11.3646 8.56979 9.30805 6.2204 8.53122C5.96027 8.44452 5.68368 8.59711 5.60136 8.87108C5.51904 9.14505 5.66393 9.43636 5.92405 9.52306C7.93758 10.1889 9.47365 11.9506 9.93299 14.1199ZM11.879 13.532C11.9316 13.7745 12.1354 13.9391 12.3606 13.9395C12.3603 13.9395 12.36 13.9395 12.3598 13.9395H12.3614C12.3611 13.9395 12.3609 13.9395 12.3606 13.9395C12.3966 13.9395 12.4325 13.936 12.4684 13.9274C12.7351 13.865 12.9031 13.5875 12.8438 13.3066C12.1671 10.1109 9.90665 7.51857 6.94152 6.53713C6.68139 6.45043 6.4048 6.60303 6.32248 6.877C6.24016 7.15097 6.38504 7.44228 6.64517 7.52897C9.27444 8.39944 11.2797 10.6987 11.879 13.532Z" fill="url(#paint0_linear_5101_452)"/>
<defs>
<linearGradient id="paint0_linear_5101_452" x1="0.781837" y1="0.643165" x2="15.5746" y2="23.1539" gradientUnits="userSpaceOnUse">
<stop stop-color="#A188F5"/>
<stop offset="1" stop-color="#5ED3D0"/>
</linearGradient>
</defs>
</svg>
