<svg width="17" height="23" viewBox="0 0 17 23" fill="none" xmlns="http://www.w3.org/2000/svg">
<path fill-rule="evenodd" clip-rule="evenodd" d="M2.60688 0H14.0042C15.444 0 16.6111 1.22925 16.6111 2.7456V20.2544C16.6111 21.7708 15.444 23 14.0042 23H2.60688C1.16714 23 0 21.7708 0 20.2544V2.7456C0 1.22925 1.16714 0 2.60688 0ZM9.43256 16.7184C11.4719 16.4322 12.4916 15.3529 12.4916 13.4806C12.4916 12.7889 12.3306 12.2283 12.0086 11.799C11.6985 11.3697 11.3288 11.0536 10.8994 10.8509C10.482 10.6481 9.94537 10.4394 9.28944 10.2248C8.74085 10.0578 8.33537 9.90278 8.073 9.75967C7.82256 9.61656 7.69733 9.41978 7.69733 9.16933C7.69733 9.062 7.71522 8.96659 7.751 8.88311C7.78678 8.79963 7.82852 8.74596 7.87622 8.72211C7.90007 8.71019 8.00144 8.70422 8.18033 8.70422C8.60967 8.70422 9.59952 8.75789 11.1499 8.86522L11.5613 8.88311C11.6329 8.53726 11.6985 8.15563 11.7581 7.73822C11.8297 7.32081 11.8714 6.99285 11.8833 6.75433C11.5256 6.63507 11.0485 6.53967 10.4522 6.46811L10.9173 4.98333H8.073L7.62578 6.45022C7.20837 6.50985 6.82078 6.58737 6.463 6.68278C6.10522 6.76626 5.8667 6.84974 5.74744 6.93322C5.497 7.11211 5.25252 7.45796 5.014 7.97078C4.77548 8.47167 4.65622 8.98448 4.65622 9.50922C4.65622 10.2486 4.81722 10.8449 5.13922 11.2981C5.46122 11.7513 5.83689 12.0852 6.26622 12.2999C6.69556 12.5146 7.23818 12.7233 7.89411 12.926C8.4427 13.1049 8.8303 13.2599 9.05689 13.3911C9.28348 13.5104 9.39678 13.6893 9.39678 13.9278C9.39678 14.0113 9.37293 14.1126 9.32522 14.2319C9.28944 14.3392 9.23578 14.4167 9.16422 14.4644C9.11652 14.5002 8.96744 14.5181 8.717 14.5181C8.28767 14.5181 7.64963 14.4764 6.80289 14.3929C5.96807 14.3094 5.34196 14.2379 4.92456 14.1782C4.853 14.4167 4.77548 14.7805 4.692 15.2694C4.62044 15.7465 4.57274 16.1102 4.54889 16.3607C5.09748 16.5038 5.77726 16.6171 6.58822 16.7006L6.06944 18.4H8.91378L9.43256 16.7184Z" fill="url(#paint0_linear_1305_13758)"/>
<defs>
<linearGradient id="paint0_linear_1305_13758" x1="0.638889" y1="0.638889" x2="15.3333" y2="23" gradientUnits="userSpaceOnUse">
<stop stop-color="#A188F5"/>
<stop offset="1" stop-color="#5ED3D0"/>
</linearGradient>
</defs>
</svg>
