<svg width="45" height="45" viewBox="0 0 45 45" fill="none" xmlns="http://www.w3.org/2000/svg">
<g clip-path="url(#clip0_5123_5086)">
<path d="M40.3496 33.1865C38.4615 35.3638 34.083 39.8274 27.8186 39.0748C25.069 41.1847 21.6301 42.4417 17.8965 42.4417C8.88463 42.4417 1.57927 35.1364 1.57927 26.1245C1.57927 18.9021 6.27328 12.78 12.7756 10.6318C10.9794 10.9603 9.17457 11.3454 8.22687 11.7051C4.67915 13.0524 1.63397 14.2749 1.63397 14.2749C1.63397 14.2749 -0.272195 19.2276 0.162984 25.2566C1.17239 33.1984 6.31613 39.8452 13.3722 42.9739C13.5792 43.0636 13.7848 43.1539 13.9979 43.2409L13.9987 43.2412C14.2679 43.3511 14.5358 43.4554 14.8023 43.5549C17.1997 44.4252 19.7865 44.9014 22.4846 44.9014C29.303 44.9014 35.4085 41.8653 39.5364 37.0765C43.8356 31.4164 44.9797 25.4366 44.8628 24.8101C44.8628 24.8101 43.5589 29.4858 40.3496 33.1865Z" fill="url(#paint0_linear_5123_5086)"/>
<path d="M19.6949 8.78301C22.245 7.13256 25.2821 6.17059 28.5458 6.17059C37.5574 6.17059 44.8631 13.4759 44.8631 22.4878C44.9118 22.2679 44.9415 22.0529 44.98 21.8357C44.8043 14.615 41.2332 8.23816 35.7973 4.24394C34.0493 3.05023 32.2922 2.11197 30.7519 1.45637C29.5765 0.991818 28.3551 0.618884 27.0924 0.356159C25.273 0.169153 22.2229 -0.247704 18.7291 0.20041C12.9602 1.16993 7.93639 4.33017 4.54414 8.8008C3.77753 9.85574 3.04028 11.0295 2.34399 12.3423C2.34399 12.3423 10.8886 7.05873 19.6949 8.78301Z" fill="url(#paint1_linear_5123_5086)"/>
<path d="M28.5458 6.1709C25.2821 6.1709 22.245 7.13288 19.6948 8.78333C23.2741 9.48419 26.8951 11.3454 30.0047 15.1884C31.1442 16.4495 32.0863 17.8906 32.7904 19.4621C34.7243 23.1367 34.6114 26.7445 33.8111 29.7199C33.1986 32.4428 31.9068 34.9076 30.1208 36.9272L30.1197 36.9285C30.1197 36.9285 41.9143 35.8251 44.8628 22.4887C44.863 13.4763 37.5574 6.1709 28.5458 6.1709Z" fill="url(#paint2_linear_5123_5086)"/>
<path d="M22.4875 37.6384C22.4864 37.6381 22.4856 37.6376 22.4846 37.6373L22.4843 37.637C22.1841 37.5168 21.8877 37.3897 21.5969 37.2525C21.5851 37.2471 21.5727 37.2417 21.5608 37.2361C21.476 37.1956 21.3922 37.1536 21.3078 37.1118C14.9464 34.0605 12.6255 28.8297 12.2987 23.9662C12.2547 23.479 12.2289 22.9864 12.2289 22.4879C12.2289 21.0291 12.4229 19.616 12.7821 18.2706C12.9111 17.747 13.0793 17.2278 13.2816 16.7185C13.9251 15.0171 14.8429 13.4505 15.9841 12.0751C17.0245 10.6947 17.8964 9.80762 17.8964 9.80762C17.8964 9.80762 15.3449 10.1622 12.7756 10.6322C6.27323 12.7803 1.57922 18.9025 1.57922 26.1248C1.57922 35.1364 8.88458 42.442 17.8964 42.442C21.6304 42.442 25.069 41.1853 27.8185 39.0751C26.3365 38.897 24.734 38.4977 23.0068 37.8394C22.8316 37.7761 22.6594 37.7073 22.4875 37.6384Z" fill="url(#paint3_linear_5123_5086)"/>
</g>
<defs>
<linearGradient id="paint0_linear_5123_5086" x1="0.0981788" y1="27.7667" x2="44.8709" y2="27.7667" gradientUnits="userSpaceOnUse">
<stop offset="0.1486" stop-color="#00EED6"/>
<stop offset="0.2947" stop-color="#22CED6"/>
<stop offset="0.7828" stop-color="#8F69D8"/>
<stop offset="1" stop-color="#BA40D8"/>
</linearGradient>
<linearGradient id="paint1_linear_5123_5086" x1="2.34378" y1="11.244" x2="45.2208" y2="11.244" gradientUnits="userSpaceOnUse">
<stop offset="0.1486" stop-color="#00EED6"/>
<stop offset="0.2947" stop-color="#22CED6"/>
<stop offset="0.7828" stop-color="#8F69D8"/>
<stop offset="1" stop-color="#BA40D8"/>
</linearGradient>
<linearGradient id="paint2_linear_5123_5086" x1="9.2988" y1="40.8854" x2="39.9144" y2="10.2698" gradientUnits="userSpaceOnUse">
<stop offset="0.1486" stop-color="#00EED6"/>
<stop offset="0.2947" stop-color="#22CED6"/>
<stop offset="0.7828" stop-color="#8F69D8"/>
<stop offset="1" stop-color="#BA40D8"/>
</linearGradient>
<linearGradient id="paint3_linear_5123_5086" x1="5.19555" y1="38.7255" x2="38.7994" y2="5.12167" gradientUnits="userSpaceOnUse">
<stop offset="0.1486" stop-color="#00EED6"/>
<stop offset="0.2947" stop-color="#22CED6"/>
<stop offset="0.7828" stop-color="#8F69D8"/>
<stop offset="1" stop-color="#BA40D8"/>
</linearGradient>
<clipPath id="clip0_5123_5086">
<rect width="45" height="45" fill="white"/>
</clipPath>
</defs>
</svg>
